<mxfile host="app.diagrams.net" modified="2022-03-22T14:09:17.693Z" agent="5.0 (Windows NT 10.0; Win64; x64) AppleWebKit/537.36 (KHTML, like Gecko) Chrome/99.0.4844.74 Safari/537.36" etag="DpSLrFRNizUDDQxqifFr" version="17.1.4" type="github">
  <diagram id="C5RBs43oDa-KdzZeNtuy" name="Page-1">
    <mxGraphModel dx="1209" dy="685" grid="1" gridSize="10" guides="1" tooltips="1" connect="1" arrows="1" fold="1" page="1" pageScale="1" pageWidth="827" pageHeight="1169" math="0" shadow="0">
      <root>
        <mxCell id="WIyWlLk6GJQsqaUBKTNV-0" />
        <mxCell id="WIyWlLk6GJQsqaUBKTNV-1" parent="WIyWlLk6GJQsqaUBKTNV-0" />
        <mxCell id="puzI76Zw9pOx2V1sZZQp-2" value="comm_task&lt;br&gt;" style="shape=umlLifeline;participant=umlEntity;perimeter=lifelinePerimeter;whiteSpace=wrap;html=1;container=1;collapsible=0;recursiveResize=0;verticalAlign=top;spacingTop=36;outlineConnect=0;" vertex="1" parent="WIyWlLk6GJQsqaUBKTNV-1">
          <mxGeometry x="250" y="100" width="40" height="470" as="geometry" />
        </mxCell>
        <mxCell id="puzI76Zw9pOx2V1sZZQp-21" value="上报数据" style="html=1;verticalAlign=bottom;endArrow=block;rounded=0;" edge="1" parent="puzI76Zw9pOx2V1sZZQp-2" target="puzI76Zw9pOx2V1sZZQp-3">
          <mxGeometry width="80" relative="1" as="geometry">
            <mxPoint x="20" y="260" as="sourcePoint" />
            <mxPoint x="100" y="260" as="targetPoint" />
          </mxGeometry>
        </mxCell>
        <mxCell id="puzI76Zw9pOx2V1sZZQp-25" value="" style="html=1;points=[];perimeter=orthogonalPerimeter;" vertex="1" parent="puzI76Zw9pOx2V1sZZQp-2">
          <mxGeometry x="15" y="300" width="10" height="80" as="geometry" />
        </mxCell>
        <mxCell id="puzI76Zw9pOx2V1sZZQp-28" value="Use" style="endArrow=open;endSize=12;dashed=1;html=1;rounded=0;" edge="1" parent="puzI76Zw9pOx2V1sZZQp-2">
          <mxGeometry width="160" relative="1" as="geometry">
            <mxPoint x="20" y="340" as="sourcePoint" />
            <mxPoint x="379.5" y="340" as="targetPoint" />
          </mxGeometry>
        </mxCell>
        <mxCell id="puzI76Zw9pOx2V1sZZQp-30" value="暂停采样" style="html=1;verticalAlign=bottom;endArrow=block;rounded=0;" edge="1" parent="puzI76Zw9pOx2V1sZZQp-2" target="puzI76Zw9pOx2V1sZZQp-4">
          <mxGeometry width="80" relative="1" as="geometry">
            <mxPoint x="30" y="320" as="sourcePoint" />
            <mxPoint x="110" y="320" as="targetPoint" />
          </mxGeometry>
        </mxCell>
        <mxCell id="puzI76Zw9pOx2V1sZZQp-3" value="上位机" style="shape=umlLifeline;participant=umlEntity;perimeter=lifelinePerimeter;whiteSpace=wrap;html=1;container=1;collapsible=0;recursiveResize=0;verticalAlign=top;spacingTop=36;outlineConnect=0;" vertex="1" parent="WIyWlLk6GJQsqaUBKTNV-1">
          <mxGeometry x="140" y="100" width="40" height="470" as="geometry" />
        </mxCell>
        <mxCell id="puzI76Zw9pOx2V1sZZQp-26" value="请求数据" style="html=1;verticalAlign=bottom;startArrow=oval;endArrow=block;startSize=8;rounded=0;" edge="1" parent="puzI76Zw9pOx2V1sZZQp-3">
          <mxGeometry x="0.1429" y="10" relative="1" as="geometry">
            <mxPoint x="20" y="310" as="sourcePoint" />
            <mxPoint x="125" y="310" as="targetPoint" />
            <mxPoint as="offset" />
          </mxGeometry>
        </mxCell>
        <mxCell id="puzI76Zw9pOx2V1sZZQp-4" value="sample_task" style="shape=umlLifeline;participant=umlEntity;perimeter=lifelinePerimeter;whiteSpace=wrap;html=1;container=1;collapsible=0;recursiveResize=0;verticalAlign=top;spacingTop=36;outlineConnect=0;" vertex="1" parent="WIyWlLk6GJQsqaUBKTNV-1">
          <mxGeometry x="360" y="100" width="40" height="470" as="geometry" />
        </mxCell>
        <mxCell id="puzI76Zw9pOx2V1sZZQp-15" value="" style="html=1;points=[];perimeter=orthogonalPerimeter;" vertex="1" parent="puzI76Zw9pOx2V1sZZQp-4">
          <mxGeometry x="15" y="140" width="10" height="40" as="geometry" />
        </mxCell>
        <mxCell id="puzI76Zw9pOx2V1sZZQp-16" value="self call" style="edgeStyle=orthogonalEdgeStyle;html=1;align=left;spacingLeft=2;endArrow=block;rounded=0;entryX=1;entryY=0;" edge="1" target="puzI76Zw9pOx2V1sZZQp-15" parent="puzI76Zw9pOx2V1sZZQp-4">
          <mxGeometry relative="1" as="geometry">
            <mxPoint x="20" y="110" as="sourcePoint" />
            <Array as="points">
              <mxPoint x="50" y="110" />
            </Array>
          </mxGeometry>
        </mxCell>
        <mxCell id="puzI76Zw9pOx2V1sZZQp-17" value="更新显示" style="html=1;verticalAlign=bottom;endArrow=block;rounded=0;" edge="1" parent="puzI76Zw9pOx2V1sZZQp-4" target="puzI76Zw9pOx2V1sZZQp-5">
          <mxGeometry x="-0.1632" width="80" relative="1" as="geometry">
            <mxPoint x="20" y="190" as="sourcePoint" />
            <mxPoint x="100" y="190" as="targetPoint" />
            <mxPoint as="offset" />
          </mxGeometry>
        </mxCell>
        <mxCell id="puzI76Zw9pOx2V1sZZQp-5" value="lcd_task" style="shape=umlLifeline;participant=umlEntity;perimeter=lifelinePerimeter;whiteSpace=wrap;html=1;container=1;collapsible=0;recursiveResize=0;verticalAlign=top;spacingTop=36;outlineConnect=0;" vertex="1" parent="WIyWlLk6GJQsqaUBKTNV-1">
          <mxGeometry x="480" y="100" width="40" height="470" as="geometry" />
        </mxCell>
        <mxCell id="puzI76Zw9pOx2V1sZZQp-6" value="record_task" style="shape=umlLifeline;participant=umlEntity;perimeter=lifelinePerimeter;whiteSpace=wrap;html=1;container=1;collapsible=0;recursiveResize=0;verticalAlign=top;spacingTop=36;outlineConnect=0;" vertex="1" parent="WIyWlLk6GJQsqaUBKTNV-1">
          <mxGeometry x="610" y="100" width="40" height="470" as="geometry" />
        </mxCell>
        <mxCell id="puzI76Zw9pOx2V1sZZQp-19" value="记录数据" style="html=1;verticalAlign=bottom;endArrow=block;rounded=0;" edge="1" parent="WIyWlLk6GJQsqaUBKTNV-1" source="puzI76Zw9pOx2V1sZZQp-4" target="puzI76Zw9pOx2V1sZZQp-6">
          <mxGeometry width="80" relative="1" as="geometry">
            <mxPoint x="380" y="360" as="sourcePoint" />
            <mxPoint x="460" y="360" as="targetPoint" />
            <Array as="points">
              <mxPoint x="470" y="320" />
              <mxPoint x="560" y="320" />
            </Array>
          </mxGeometry>
        </mxCell>
        <mxCell id="puzI76Zw9pOx2V1sZZQp-20" value="更新数据" style="html=1;verticalAlign=bottom;endArrow=block;rounded=0;" edge="1" parent="WIyWlLk6GJQsqaUBKTNV-1" source="puzI76Zw9pOx2V1sZZQp-4" target="puzI76Zw9pOx2V1sZZQp-2">
          <mxGeometry width="80" relative="1" as="geometry">
            <mxPoint x="190" y="390" as="sourcePoint" />
            <mxPoint x="270" y="390" as="targetPoint" />
            <Array as="points">
              <mxPoint x="320" y="330" />
            </Array>
          </mxGeometry>
        </mxCell>
        <mxCell id="puzI76Zw9pOx2V1sZZQp-27" value="return" style="html=1;verticalAlign=bottom;endArrow=open;dashed=1;endSize=8;rounded=0;" edge="1" parent="WIyWlLk6GJQsqaUBKTNV-1">
          <mxGeometry relative="1" as="geometry">
            <mxPoint x="270" y="480" as="sourcePoint" />
            <mxPoint x="159.5" y="480" as="targetPoint" />
          </mxGeometry>
        </mxCell>
        <mxCell id="puzI76Zw9pOx2V1sZZQp-29" value="return" style="html=1;verticalAlign=bottom;endArrow=open;dashed=1;endSize=8;rounded=0;" edge="1" parent="WIyWlLk6GJQsqaUBKTNV-1">
          <mxGeometry relative="1" as="geometry">
            <mxPoint x="629.5" y="470" as="sourcePoint" />
            <mxPoint x="275" y="470" as="targetPoint" />
            <Array as="points">
              <mxPoint x="360" y="470" />
            </Array>
          </mxGeometry>
        </mxCell>
      </root>
    </mxGraphModel>
  </diagram>
</mxfile>
